HIERARCHY
ROOT newVegas:Hips
{
	OFFSET 0.000000 96.479958 0.000000
	CHANNELS 6 Xposition Yposition Zposition Xrotation Yrotation Zrotation
	JOINT newVegas:Pelvis
	{
		OFFSET 0.000000 0.000000 0.000000
		CHANNELS 3 Xrotation Yrotation Zrotation
		JOINT newVegas:LeftUpLeg
		{
			OFFSET 18.735201 -5.666702 -4.541200
			CHANNELS 3 Xrotation Yrotation Zrotation
			JOINT newVegas:LeftLeg
			{
				OFFSET -0.021200 -31.938179 0.493100
				CHANNELS 3 Xrotation Yrotation Zrotation
				JOINT newVegas:LeftFoot
				{
					OFFSET 0.021200 -31.938179 -4.336299
					CHANNELS 3 Xrotation Yrotation Zrotation
					JOINT newVegas:LeftToeBase
					{
						OFFSET 0.943001 -26.722000 15.023500
						CHANNELS 3 Xrotation Yrotation Zrotation
						End Site
						{
							OFFSET 0.000000 30.670183 0.000000
						}
					}
				}
				JOINT newVegas:Left_PantLeg
				{
					OFFSET 0.663870 -9.044666 -1.108900
					CHANNELS 3 Xrotation Yrotation Zrotation
					End Site
					{
						OFFSET 1.415995 20.635357 0.000000
					}
				}
			}
		}
		JOINT newVegas:RightUpLeg
		{
			OFFSET -18.735201 -5.666702 -4.541200
			CHANNELS 3 Xrotation Yrotation Zrotation
			JOINT newVegas:RightLeg
			{
				OFFSET 0.018946 -31.938133 0.493100
				CHANNELS 3 Xrotation Yrotation Zrotation
				JOINT newVegas:RightFoot
				{
					OFFSET -0.018946 -31.938126 -4.336299
					CHANNELS 3 Xrotation Yrotation Zrotation
					JOINT newVegas:RightToeBase
					{
						OFFSET -0.943001 -26.722004 15.023500
						CHANNELS 3 Xrotation Yrotation Zrotation
						End Site
						{
							OFFSET 0.000000 30.670187 0.000000
						}
					}
				}
				JOINT newVegas:Right_PantLeg
				{
					OFFSET -0.661674 -9.044716 -1.108900
					CHANNELS 3 Xrotation Yrotation Zrotation
					End Site
					{
						OFFSET -1.415958 20.635269 0.000000
					}
				}
			}
		}
	}
	JOINT newVegas:Spine
	{
		OFFSET 0.000000 10.199997 -0.299500
		CHANNELS 3 Xrotation Yrotation Zrotation
		JOINT newVegas:Spine1
		{
			OFFSET 0.000000 11.900002 -1.516600
			CHANNELS 3 Xrotation Yrotation Zrotation
			JOINT newVegas:Spine2
			{
				OFFSET 0.000000 13.600006 -2.842500
				CHANNELS 3 Xrotation Yrotation Zrotation
				JOINT newVegas:Neck
				{
					OFFSET 0.000000 9.624100 -2.890100
					CHANNELS 3 Xrotation Yrotation Zrotation
					JOINT newVegas:Head
					{
						OFFSET 0.000000 14.068802 -1.351900
						CHANNELS 3 Xrotation Yrotation Zrotation
						JOINT newVegas:Hair_Back
						{
							OFFSET 0.000000 3.231903 -17.524799
							CHANNELS 3 Xrotation Yrotation Zrotation
							End Site
							{
								OFFSET 0.000000 19.849884 0.000000
							}
						}
						JOINT newVegas:Hair_Front
						{
							OFFSET 0.000000 31.260406 4.573800
							CHANNELS 3 Xrotation Yrotation Zrotation
							JOINT newVegas:Hair_Front1
							{
								OFFSET 0.000000 2.284103 11.993300
								CHANNELS 3 Xrotation Yrotation Zrotation
								JOINT newVegas:Hair_Front2
								{
									OFFSET 0.000000 2.284103 11.993300
									CHANNELS 3 Xrotation Yrotation Zrotation
									End Site
									{
										OFFSET 0.000000 12.208862 0.000000
									}
								}
							}
						}
						JOINT newVegas:Jowel
						{
							OFFSET 0.000000 -7.458206 6.864100
							CHANNELS 3 Xrotation Yrotation Zrotation
							End Site
							{
								OFFSET 0.000000 19.849884 0.000000
							}
						}
					}
				}
				JOINT newVegas:LeftShoulder
				{
					OFFSET 15.263000 10.923401 -0.547700
					CHANNELS 3 Xrotation Yrotation Zrotation
					JOINT newVegas:LeftArm
					{
						OFFSET 25.438599 -2.830597 -13.032500
						CHANNELS 3 Xrotation Yrotation Zrotation
						JOINT newVegas:LeftForeArm
						{
							OFFSET 29.960503 0.000000 0.000000
							CHANNELS 3 Xrotation Yrotation Zrotation
							JOINT newVegas:LeftHand
							{
								OFFSET 27.849251 0.000000 0.000000
								CHANNELS 3 Xrotation Yrotation Zrotation
								JOINT newVegas:LeftHandThumb1
								{
									OFFSET 4.487587 -3.305161 6.305391
									CHANNELS 3 Xrotation Yrotation Zrotation
									JOINT newVegas:LeftHandThumb2
									{
										OFFSET 5.480453 -3.164139 3.164143
										CHANNELS 3 Xrotation Yrotation Zrotation
										JOINT newVegas:LeftHandThumb3
										{
											OFFSET 5.159721 -2.978973 2.978967
											CHANNELS 3 Xrotation Yrotation Zrotation
											End Site
											{
												OFFSET 2.494507 5.926697 1.738678
											}
										}
									}
								}
								JOINT newVegas:LeftHandIndex1
								{
									OFFSET 18.578728 -0.527832 5.208049
									CHANNELS 3 Xrotation Yrotation Zrotation
									JOINT newVegas:LeftHandIndex2
									{
										OFFSET 3.192009 0.000000 0.000000
										CHANNELS 3 Xrotation Yrotation Zrotation
										JOINT newVegas:LeftHandIndex3
										{
											OFFSET 3.835129 0.000000 0.000000
											CHANNELS 3 Xrotation Yrotation Zrotation
											End Site
											{
												OFFSET -0.034599 3.816971 0.371180
											}
										}
									}
								}
								JOINT newVegas:LeftHandMiddle1
								{
									OFFSET 18.476105 0.000000 0.000000
									CHANNELS 3 Xrotation Yrotation Zrotation
									JOINT newVegas:LeftHandMiddle2
									{
										OFFSET 3.324875 0.000000 0.000000
										CHANNELS 3 Xrotation Yrotation Zrotation
										JOINT newVegas:LeftHandMiddle3
										{
											OFFSET 4.596550 0.000000 0.000000
											CHANNELS 3 Xrotation Yrotation Zrotation
											End Site
											{
												OFFSET 0.057701 4.578827 0.399218
											}
										}
									}
								}
								JOINT newVegas:LeftHandRing1
								{
									OFFSET 17.732719 0.121887 -4.201567
									CHANNELS 3 Xrotation Yrotation Zrotation
									JOINT newVegas:LeftHandRing2
									{
										OFFSET 2.733170 0.000000 0.000000
										CHANNELS 3 Xrotation Yrotation Zrotation
										JOINT newVegas:LeftHandRing3
										{
											OFFSET 3.178268 0.000000 0.000000
											CHANNELS 3 Xrotation Yrotation Zrotation
											End Site
											{
												OFFSET 0.119102 3.170624 0.185394
											}
										}
									}
								}
								JOINT newVegas:LeftHandPinky1
								{
									OFFSET 15.989624 -0.606689 -7.535461
									CHANNELS 3 Xrotation Yrotation Zrotation
									JOINT newVegas:LeftHandPinky2
									{
										OFFSET 2.538986 0.000000 0.000000
										CHANNELS 3 Xrotation Yrotation Zrotation
										JOINT newVegas:LeftHandPinky3
										{
											OFFSET 2.593102 0.000000 0.000000
											CHANNELS 3 Xrotation Yrotation Zrotation
											End Site
											{
												OFFSET -0.150902 2.584198 0.152708
											}
										}
									}
								}
							}
							JOINT newVegas:Left_Sleeve
							{
								OFFSET 0.267448 -0.649796 0.577675
								CHANNELS 3 Xrotation Yrotation Zrotation
								End Site
								{
									OFFSET 0.000000 15.991241 0.000000
								}
							}
							JOINT newVegas:Left_CapeC
							{
								OFFSET 15.715958 -8.608795 -6.935905
								CHANNELS 3 Xrotation Yrotation Zrotation
								JOINT newVegas:Left_CapeC1
								{
									OFFSET 0.000000 -8.688499 0.000000
									CHANNELS 3 Xrotation Yrotation Zrotation
									End Site
									{
										OFFSET 0.000000 8.688499 0.000000
									}
								}
							}
						}
						JOINT newVegas:Left_CapeB
						{
							OFFSET 26.118385 -8.608795 -7.079235
							CHANNELS 3 Xrotation Yrotation Zrotation
							JOINT newVegas:Left_CapeB1
							{
								OFFSET 0.000000 -8.688499 0.000000
								CHANNELS 3 Xrotation Yrotation Zrotation
								End Site
								{
									OFFSET 0.000000 8.688499 0.000000
								}
							}
						}
						JOINT newVegas:Left_CapeA
						{
							OFFSET 5.115639 -8.608795 -10.395809
							CHANNELS 3 Xrotation Yrotation Zrotation
							JOINT newVegas:Left_CapeA1
							{
								OFFSET 0.000000 -8.688499 0.000000
								CHANNELS 3 Xrotation Yrotation Zrotation
								End Site
								{
									OFFSET 0.000000 8.688499 0.000000
								}
							}
						}
					}
				}
				JOINT newVegas:RightShoulder
				{
					OFFSET -15.263000 10.923401 -0.547700
					CHANNELS 3 Xrotation Yrotation Zrotation
					JOINT newVegas:RightArm
					{
						OFFSET -25.438599 -2.830597 -13.032500
						CHANNELS 3 Xrotation Yrotation Zrotation
						JOINT newVegas:RightForeArm
						{
							OFFSET -29.960503 0.000000 0.000000
							CHANNELS 3 Xrotation Yrotation Zrotation
							JOINT newVegas:RightHand
							{
								OFFSET -27.849251 0.000000 0.000000
								CHANNELS 3 Xrotation Yrotation Zrotation
								JOINT newVegas:RightHandThumb1
								{
									OFFSET -4.487587 -3.305161 6.305391
									CHANNELS 3 Xrotation Yrotation Zrotation
									JOINT newVegas:RightHandThumb2
									{
										OFFSET -5.480453 -3.164139 3.164143
										CHANNELS 3 Xrotation Yrotation Zrotation
										JOINT newVegas:RightHandThumb3
										{
											OFFSET -5.159721 -2.978973 2.978967
											CHANNELS 3 Xrotation Yrotation Zrotation
											End Site
											{
												OFFSET -2.494507 5.926697 1.738678
											}
										}
									}
								}
								JOINT newVegas:RightHandIndex1
								{
									OFFSET -18.578728 -0.527832 5.208049
									CHANNELS 3 Xrotation Yrotation Zrotation
									JOINT newVegas:RightHandIndex2
									{
										OFFSET -3.192009 0.000000 0.000000
										CHANNELS 3 Xrotation Yrotation Zrotation
										JOINT newVegas:RightHandIndex3
										{
											OFFSET -3.835129 0.000000 0.000000
											CHANNELS 3 Xrotation Yrotation Zrotation
											End Site
											{
												OFFSET 0.034599 3.816971 0.371180
											}
										}
									}
								}
								JOINT newVegas:RightHandMiddle1
								{
									OFFSET -18.476105 0.000000 0.000000
									CHANNELS 3 Xrotation Yrotation Zrotation
									JOINT newVegas:RightHandMiddle2
									{
										OFFSET -3.324875 0.000000 0.000000
										CHANNELS 3 Xrotation Yrotation Zrotation
										JOINT newVegas:RightHandMiddle3
										{
											OFFSET -4.596550 0.000000 0.000000
											CHANNELS 3 Xrotation Yrotation Zrotation
											End Site
											{
												OFFSET -0.057701 4.578827 0.399218
											}
										}
									}
								}
								JOINT newVegas:RightHandRing1
								{
									OFFSET -17.732719 0.121887 -4.201567
									CHANNELS 3 Xrotation Yrotation Zrotation
									JOINT newVegas:RightHandRing2
									{
										OFFSET -2.733170 0.000000 0.000000
										CHANNELS 3 Xrotation Yrotation Zrotation
										JOINT newVegas:RightHandRing3
										{
											OFFSET -3.178268 0.000000 0.000000
											CHANNELS 3 Xrotation Yrotation Zrotation
											End Site
											{
												OFFSET -0.119102 3.170624 0.185394
											}
										}
									}
								}
								JOINT newVegas:RightHandPinky1
								{
									OFFSET -15.989624 -0.606689 -7.535461
									CHANNELS 3 Xrotation Yrotation Zrotation
									JOINT newVegas:RightHandPinky2
									{
										OFFSET -2.538986 0.000000 0.000000
										CHANNELS 3 Xrotation Yrotation Zrotation
										JOINT newVegas:RightHandPinky3
										{
											OFFSET -2.593102 0.000000 0.000000
											CHANNELS 3 Xrotation Yrotation Zrotation
											End Site
											{
												OFFSET 0.150902 2.584198 0.152708
											}
										}
									}
								}
							}
							JOINT newVegas:Right_CapeC
							{
								OFFSET -15.715958 -8.608795 -6.935905
								CHANNELS 3 Xrotation Yrotation Zrotation
								JOINT newVegas:Right_CapeC1
								{
									OFFSET 0.000000 -8.688499 0.000000
									CHANNELS 3 Xrotation Yrotation Zrotation
									End Site
									{
										OFFSET 0.000000 8.688499 0.000000
									}
								}
							}
							JOINT newVegas:Right_Sleeve
							{
								OFFSET -0.267448 -0.649994 0.577675
								CHANNELS 3 Xrotation Yrotation Zrotation
								End Site
								{
									OFFSET 0.000000 15.991302 0.000000
								}
							}
						}
						JOINT newVegas:Right_CapeA
						{
							OFFSET -5.115540 -8.608795 -10.395824
							CHANNELS 3 Xrotation Yrotation Zrotation
							JOINT newVegas:Right_CapeA1
							{
								OFFSET 0.000000 -8.688499 0.000000
								CHANNELS 3 Xrotation Yrotation Zrotation
								End Site
								{
									OFFSET 0.000000 8.688499 0.000000
								}
							}
						}
						JOINT newVegas:Right_CapeB
						{
							OFFSET -26.118187 -8.608795 -7.079266
							CHANNELS 3 Xrotation Yrotation Zrotation
							JOINT newVegas:Right_CapeB1
							{
								OFFSET 0.000000 -8.688499 0.000000
								CHANNELS 3 Xrotation Yrotation Zrotation
								End Site
								{
									OFFSET 0.000000 8.688499 0.000000
								}
							}
						}
					}
				}
				JOINT newVegas:Left_Collar
				{
					OFFSET 18.625099 8.655502 8.828100
					CHANNELS 3 Xrotation Yrotation Zrotation
					JOINT newVegas:Left_Collar1
					{
						OFFSET 14.783401 10.540405 -1.259500
						CHANNELS 3 Xrotation Yrotation Zrotation
						End Site
						{
							OFFSET 0.000000 18.199875 0.000000
						}
					}
				}
				JOINT newVegas:Collar_Back
				{
					OFFSET 0.000000 15.630707 -20.132601
					CHANNELS 3 Xrotation Yrotation Zrotation
					End Site
					{
						OFFSET 0.000000 22.523010 0.000000
					}
				}
				JOINT newVegas:Left_Peck
				{
					OFFSET 17.239599 -5.132599 25.482599
					CHANNELS 3 Xrotation Yrotation Zrotation
					End Site
					{
						OFFSET 0.000000 22.523010 0.000000
					}
				}
				JOINT newVegas:Right_Peck
				{
					OFFSET -17.239599 -5.132202 25.482599
					CHANNELS 3 Xrotation Yrotation Zrotation
					End Site
					{
						OFFSET 0.000000 22.523010 0.000000
					}
				}
				JOINT newVegas:Right_Collar
				{
					OFFSET -18.625099 8.655792 8.828100
					CHANNELS 3 Xrotation Yrotation Zrotation
					JOINT newVegas:Right_Collar1
					{
						OFFSET -14.783401 10.539993 -1.259500
						CHANNELS 3 Xrotation Yrotation Zrotation
						End Site
						{
							OFFSET 0.000000 18.199631 0.000000
						}
					}
				}
			}
		}
		JOINT newVegas:Belly
		{
			OFFSET 0.000000 -6.540398 9.014299
			CHANNELS 3 Xrotation Yrotation Zrotation
			End Site
			{
				OFFSET 0.000000 11.566666 0.000000
			}
		}
	}
	JOINT newVegas:ElvisFacialAnim_Joint
	{
		OFFSET 1.000000 -95.330101 -8.825800
		CHANNELS 3 Xrotation Yrotation Zrotation
		End Site
		{
			OFFSET 0.000000 35.315800 0.000000
		}
	}
}
MOTION
Frames: 4
Frame Time: 0.016667
70.016571 92.685585 43.206188 4.662933 68.508129 -4.755572 0.000000 -0.000001 -0.000000 -30.609390 -9.590940 -0.977754 20.405149 0.727241 -8.519743 9.982673 -18.415962 7.270782 0.000000 0.000001 -0.000000 -0.000000 -0.000000 -0.000000 2.882390 -13.861419 -1.122749 30.990498 -2.210769 -3.023521 0.331534 -12.348028 11.464396 -0.000003 -0.000000 0.000001 0.000001 -0.000002 0.000003 1.481978 15.639827 -1.851752 0.302477 12.349563 -1.690999 0.319025 12.258879 -2.268430 6.883358 -6.870907 -0.399093 6.883355 -6.870887 -0.399099 0.000001 0.000000 0.000000 6.883287 -6.870893 -0.399099 6.883417 -6.870832 -0.399096 -0.000002 0.000000 0.000001 0.000001 0.000000 -0.000000 -2.027421 -8.616121 -14.640806 564.659170 -127.569533 506.102155 0.000002 -67.460822 -0.000000 -133.641530 -5.524202 50.251928 -10.936367 -6.746914 10.333074 -18.089420 8.879769 2.392675 0.000001 0.000001 -0.000003 5.890359 8.200080 -88.621821 6.193150 5.841089 -93.357642 -0.000001 -0.000002 0.000001 7.765532 7.904005 -107.399465 3.749169 5.461704 -68.913494 0.000002 -0.000003 -0.000001 7.314715 8.035595 -105.794986 3.608016 5.405425 -67.422901 -0.000001 0.000003 0.000001 10.390474 6.780252 -113.877142 1.172165 3.517156 -36.854024 -0.000000 -0.000002 0.000003 -0.000001 0.000002 -0.000001 -0.000001 0.000002 -0.000001 -0.000001 0.000002 -0.000001 0.000002 -0.000001 -0.000002 0.000002 -0.000001 -0.000001 0.000002 -0.000001 -0.000002 0.000001 -0.000001 -0.000002 -8.395410 33.279854 21.038929 6.092965 31.507495 48.663438 0.000006 48.322410 -0.000002 -20.121555 -43.295299 5.646356 17.912422 17.120579 -32.483546 12.694404 -52.014226 20.210873 0.000000 -0.000003 -0.000003 0.276348 -8.899012 1.740158 5.888280 -4.491853 105.344180 0.000000 0.000000 0.000000 4.166163 -8.600787 42.153206 7.050139 -3.996498 120.947118 -0.000002 0.000001 0.000002 -0.361095 -4.549263 57.044241 4.703205 -4.656920 90.567079 0.000001 -0.000003 -0.000002 -5.324597 -0.292094 51.887298 3.524508 -4.517606 75.909274 0.000001 -0.000004 0.000000 0.000001 -0.000002 0.000001 0.000002 -0.000002 0.000000 0.000001 -0.000002 -0.000000 -0.000000 0.000002 -0.000001 -0.000000 0.000002 -0.000001 -0.000000 0.000002 -0.000001 -0.000000 0.000002 -0.000001 -0.000000 0.000000 -0.000000 -0.000000 0.000000 -0.000000 -0.000000 0.000000 -0.000000 -0.000000 0.000000 -0.000000 -0.000000 0.000000 -0.000000 -0.000000 0.000000 -0.000000 -0.000000 0.000000 -0.000000 -0.000000 0.000000 -0.000000 0.000000 -0.000001 -0.000000 
69.627098 92.647858 43.115829 4.332727 67.315899 -4.410769 0.000000 -0.000000 -0.000000 -30.693504 -9.486539 -0.604208 20.742209 1.523987 -8.608026 9.786933 -18.300213 7.172061 -0.000000 -0.000005 -0.000000 -0.000000 0.000003 0.000001 3.492143 -12.315569 -1.306032 30.196499 -2.766730 -2.903924 -1.103561 -15.156205 10.880691 -0.000000 0.000002 0.000001 0.000000 0.000003 -0.000002 1.489445 15.315886 -1.782535 0.343534 12.111562 -1.597175 0.355242 12.030029 -2.142362 6.751916 -6.766925 -0.487901 6.751937 -6.766945 -0.487897 0.000001 0.000000 -0.000000 6.751990 -6.766946 -0.487889 6.751838 -6.766972 -0.487902 -0.000001 0.000000 -0.000000 0.000001 0.000000 -0.000000 -1.967087 -8.442190 -14.580900 563.731685 -126.918316 505.300673 -0.000026 -66.037356 -0.000023 -133.517016 -3.963446 49.001843 -10.936437 -6.746910 10.333391 -18.089420 8.879769 2.392679 0.000002 -0.000002 -0.000003 5.890360 8.200079 -88.621841 6.193152 5.841087 -93.357648 -0.000002 -0.000001 -0.000003 7.765543 7.904006 -107.399513 3.753028 5.463185 -68.954100 0.000004 0.000002 -0.000000 7.314726 8.035596 -105.794993 3.608014 5.405419 -67.422894 -0.000002 -0.000001 -0.000000 10.390482 6.780252 -113.877155 1.175908 3.522150 -36.915130 0.000001 0.000002 0.000000 -0.000000 0.000001 -0.000000 -0.000000 0.000001 -0.000000 -0.000001 0.000001 0.000000 0.000001 0.000000 -0.000000 0.000001 0.000001 0.000001 0.000001 0.000000 -0.000000 -0.000000 0.000001 -0.000000 -8.428598 32.859050 21.486419 5.768017 31.090943 48.692029 -0.000012 48.134419 -0.000004 -19.464982 -44.389416 4.704359 17.912422 17.120581 -32.483543 12.694409 -52.014237 20.210866 0.000002 0.000002 0.000001 0.276336 -8.899006 1.740155 5.888279 -4.491853 105.344186 -0.000001 -0.000000 0.000001 4.166158 -8.600786 42.153199 7.050137 -3.996498 120.947118 0.000000 0.000000 0.000001 -0.361101 -4.549261 57.044237 4.703203 -4.656926 90.567086 -0.000002 0.000002 0.000002 -5.324592 -0.292098 51.887315 3.524511 -4.517609 75.909274 -0.000003 -0.000004 0.000003 -0.000001 0.000000 0.000001 -0.000001 -0.000000 -0.000002 -0.000001 0.000000 0.000001 -0.000001 0.000000 -0.000001 -0.000001 0.000000 -0.000001 -0.000001 0.000000 -0.000001 -0.000001 -0.000000 -0.000001 0.000000 0.000002 -0.000000 0.000000 0.000002 -0.000000 0.000000 0.000002 -0.000000 0.000000 0.000002 -0.000000 0.000000 0.000002 -0.000000 0.000000 0.000002 -0.000000 0.000000 0.000002 -0.000000 0.000000 -0.000000 0.000000 0.000000 -0.000000 -0.000000 
69.158363 92.588448 43.020626 4.064183 66.032070 -4.149666 -0.000000 0.000001 0.000000 -30.876724 -9.345877 -0.118214 21.194205 2.374781 -8.743480 9.580808 -18.240439 7.050753 -0.000000 0.000002 0.000000 -0.000000 -0.000002 -0.000000 5.022372 -11.297302 -1.250372 28.080759 -1.428242 -2.870926 -2.002961 -20.074623 10.095183 -0.000001 0.000001 -0.000002 0.000000 0.000002 -0.000001 1.465117 14.995598 -1.718772 0.349806 11.848929 -1.478820 0.356715 11.776925 -1.992126 6.626006 -6.652811 -0.583991 6.625989 -6.652779 -0.583999 -0.000001 0.000000 0.000001 6.625992 -6.652780 -0.583989 6.625985 -6.652798 -0.583996 -0.000000 0.000002 0.000000 -0.000001 0.000000 0.000000 -1.896975 -8.276092 -14.474766 562.789501 -126.168402 504.520666 0.000030 -64.514361 0.000048 -133.165931 -2.289619 47.769305 -10.936569 -6.746918 10.333448 -18.089421 8.879768 2.392675 0.000000 -0.000002 -0.000003 5.890365 8.200083 -88.621821 6.193155 5.841089 -93.357642 -0.000001 -0.000003 -0.000003 7.765540 7.904014 -107.399493 3.758008 5.465077 -69.006282 0.000001 -0.000002 -0.000003 7.314725 8.035608 -105.795013 3.608014 5.405422 -67.422908 -0.000003 -0.000002 -0.000001 10.390477 6.780266 -113.877142 1.180756 3.528568 -36.993783 -0.000000 0.000002 -0.000001 0.000001 -0.000001 0.000003 0.000001 -0.000001 0.000003 0.000000 -0.000001 0.000003 -0.000003 -0.000001 -0.000001 -0.000002 -0.000001 -0.000001 -0.000003 -0.000001 -0.000001 -0.000003 0.000000 -0.000001 -8.483175 32.397800 22.014842 5.553989 30.650371 48.597800 -0.000009 48.025495 0.000009 -19.267286 -45.436303 3.569768 17.912427 17.120585 -32.483560 12.694408 -52.014233 20.210863 0.000000 0.000001 0.000001 0.276344 -8.899010 1.740156 5.888278 -4.491853 105.344180 -0.000000 -0.000001 0.000001 4.166152 -8.600781 42.153209 7.050139 -3.996496 120.947118 -0.000000 -0.000001 -0.000001 -0.361104 -4.549257 57.044241 4.703206 -4.656922 90.567086 -0.000000 0.000001 0.000001 -5.324599 -0.292084 51.887308 3.524510 -4.517611 75.909274 -0.000001 -0.000002 -0.000003 -0.000001 -0.000002 -0.000001 -0.000001 -0.000002 -0.000003 -0.000001 -0.000002 -0.000001 0.000000 0.000000 0.000002 0.000000 0.000000 0.000002 0.000000 0.000000 0.000002 0.000000 0.000000 0.000002 -0.000000 -0.000001 0.000000 -0.000000 -0.000001 0.000000 -0.000000 -0.000001 0.000000 -0.000000 -0.000001 0.000000 -0.000000 -0.000001 0.000000 -0.000000 -0.000001 0.000000 -0.000000 -0.000001 0.000000 -0.000000 0.000001 -0.000000 -0.000000 0.000001 0.000000 
68.680626 92.516998 42.914700 3.846065 64.814097 -3.847444 0.000000 0.000002 -0.000000 -31.010937 -9.200310 0.260680 21.478032 3.268865 -8.848160 9.485985 -18.226080 6.918644 0.000000 0.000000 -0.000000 -0.000001 0.000003 -0.000000 6.554567 -11.189286 -1.198226 26.094466 0.341812 -3.020536 -3.514025 -25.317307 9.022379 -0.000000 0.000002 0.000000 -0.000002 0.000001 -0.000001 1.475339 14.640471 -1.756336 0.371863 11.541098 -1.378605 0.372756 11.478284 -1.856315 6.496663 -6.533818 -0.673330 6.496658 -6.533832 -0.673330 0.000001 0.000000 0.000000 6.496671 -6.533855 -0.673322 6.496726 -6.533847 -0.673318 0.000001 0.000000 -0.000000 0.000001 0.000000 -0.000000 -1.822196 -8.117081 -14.348532 561.935728 -125.327851 503.893436 0.000012 -62.965069 0.000028 -132.533100 -0.580724 46.575620 -10.936747 -6.746921 10.333230 -18.089416 8.879768 2.392675 -0.000000 -0.000001 -0.000001 5.890353 8.200081 -88.621821 6.193162 5.841089 -93.357642 -0.000005 -0.000001 -0.000003 7.765520 7.904019 -107.399472 3.763885 5.467351 -69.068014 0.000004 -0.000002 -0.000003 7.314717 8.035595 -105.794993 3.608011 5.405420 -67.422901 0.000000 -0.000001 -0.000001 10.390460 6.780244 -113.877114 1.186472 3.536124 -37.086660 -0.000003 0.000002 0.000001 0.000000 -0.000001 -0.000001 0.000000 -0.000001 -0.000001 -0.000000 -0.000001 -0.000001 -0.000001 -0.000003 0.000004 -0.000001 -0.000003 0.000004 -0.000001 -0.000003 0.000004 -0.000002 -0.000002 0.000004 -8.552620 31.896891 22.612287 5.447678 30.142513 48.410834 -0.000010 48.027623 0.000024 -19.755404 -46.276103 2.025956 17.912431 17.120583 -32.483557 12.694415 -52.014237 20.210859 0.000000 0.000001 0.000001 0.276342 -8.899008 1.740164 5.888277 -4.491855 105.344180 -0.000001 -0.000000 -0.000000 4.166168 -8.600786 42.153213 7.050137 -3.996496 120.947105 0.000001 -0.000000 -0.000001 -0.361099 -4.549258 57.044248 4.703208 -4.656922 90.567079 0.000004 0.000001 0.000003 -5.324596 -0.292088 51.887315 3.524508 -4.517611 75.909274 0.000002 -0.000004 -0.000001 0.000000 0.000003 -0.000002 0.000000 0.000003 -0.000002 0.000000 0.000003 -0.000000 -0.000001 0.000000 0.000001 -0.000000 0.000001 0.000001 -0.000001 0.000000 0.000001 -0.000000 0.000001 0.000001 -0.000000 0.000000 -0.000000 -0.000000 0.000000 -0.000000 -0.000000 0.000000 -0.000000 -0.000000 0.000000 -0.000000 -0.000000 0.000000 -0.000000 -0.000000 0.000000 -0.000000 -0.000000 0.000000 -0.000000 -0.000000 0.000001 -0.000000 0.000000 0.000002 -0.000000 
